<svg width="145" height="169" viewBox="0 0 145 169" fill="none" xmlns="http://www.w3.org/2000/svg">
<path d="M45.8613 113.235C42.23 108.717 38.4726 104.021 35.497 97.115C32.5843 90.3048 30.9704 83.2748 31.0209 75.9702C31.0839 68.6657 32.7861 61.1414 36.4931 53.37C36.5183 53.3151 36.5435 53.2739 36.5687 53.219C41.4231 44.2668 48.2192 38.2803 55.7844 34.9301C62.1266 32.1016 69.0236 31.1405 75.7819 31.8133C82.5149 32.4861 89.1093 34.7928 94.8715 38.5C102.197 43.2233 108.224 50.2258 111.54 59.0681C113.331 63.86 114.541 69.2012 114.692 75.0503C114.844 80.8857 113.923 87.1742 111.452 93.8197C107.669 104.021 98.8306 114.951 93.0432 124.988C92.728 124.919 92.4002 124.905 92.0723 124.96L84.2676 126.223L96.1576 81.1878C96.498 79.9109 95.8045 78.579 94.6319 78.2083C93.4593 77.8513 92.2363 78.5927 91.8958 79.8697L79.451 127.02L67.6492 128.928L55.1792 85.76C56.0744 85.9522 57.0201 85.5266 57.5118 84.6204L66.3505 68.24L70.8519 79.4852C71.3436 80.7072 72.6423 81.2564 73.7519 80.7347C74.3066 80.4738 74.7101 79.9795 74.9245 79.4166L78.9088 68.4597L83.5741 81.8606C84.0028 83.11 85.2763 83.7279 86.4236 83.2611C87.571 82.7942 88.1384 81.4075 87.7097 80.158L81.0649 61.0728C80.8758 60.4 80.4093 59.8233 79.7662 59.5487C78.6314 59.0544 77.3454 59.6723 76.8914 60.908L72.7684 72.263L68.6579 61.9927C68.4814 61.5396 68.1662 61.1414 67.7501 60.8805C66.7036 60.2077 65.3418 60.5922 64.7366 61.7318L53.994 81.6409L53.2248 78.9909C52.8592 77.7277 51.6235 77.0137 50.4635 77.4119C49.3035 77.8101 48.6479 79.1557 49.0135 80.4189L63.2236 129.642L54.6749 131.029C52.607 124.37 49.4548 117.724 45.8613 113.235ZM17.9834 25.4012C16.9873 24.3852 16.4578 23.0259 16.4073 21.6528C16.3569 20.2798 16.7982 18.8793 17.7187 17.7946C18.6517 16.7099 19.9 16.1332 21.1608 16.0783C22.4217 16.0234 23.7078 16.5039 24.7039 17.5062L32.6222 25.5385C33.6183 26.5546 34.1478 27.9139 34.1983 29.2869C34.2487 30.6737 33.8074 32.0605 32.887 33.1452C31.9539 34.2299 30.7056 34.8065 29.4448 34.8615C28.1713 34.9164 26.8978 34.4358 25.9017 33.4335L17.9834 25.4012ZM5.03427 84.6753C3.69774 84.7028 2.47469 84.1398 1.56686 83.2199C0.646427 82.2725 0.0538163 80.9544 0.00338139 79.4577C-0.0470535 77.9749 0.469904 76.6018 1.33991 75.5995C2.20991 74.5972 3.42035 73.9519 4.7947 73.9107L15.6004 73.5125C16.9621 73.4576 18.223 74.0205 19.1434 74.9679C20.0639 75.9153 20.6565 77.2334 20.6943 78.73V78.8124H20.7069L20.6943 79.0046C20.6691 80.3914 20.1647 81.6409 19.3578 82.5883C18.4878 83.5906 17.2773 84.2222 15.903 84.2771H15.8273V84.2908H15.7139L5.03427 84.6753ZM139.595 67.9929L139.759 67.9791C141.045 67.8968 142.243 68.3499 143.176 69.1737C144.159 70.0387 144.827 71.3294 144.979 72.7985V72.8534C144.991 72.8534 144.991 73.0045 144.991 73.0319C145.067 74.4324 144.651 75.7368 143.894 76.7529C143.1 77.8238 141.915 78.5515 140.566 78.7163L129.81 79.952C128.449 80.1031 127.162 79.6362 126.192 78.7712C125.208 77.9062 124.527 76.6156 124.389 75.1464C124.25 73.6773 124.679 72.263 125.473 71.2058C126.267 70.1348 127.452 69.3934 128.802 69.2423C132.395 68.8167 136.001 68.3636 139.595 67.9929ZM118.286 21.1173C119.055 19.8816 120.19 19.1127 121.425 18.8381C122.661 18.5772 123.985 18.8244 125.132 19.6482L125.145 19.6619C126.28 20.4857 126.999 21.7352 127.238 23.0808C127.478 24.4264 127.251 25.868 126.494 27.1175L120.48 36.9073C119.723 38.143 118.576 38.9257 117.328 39.2003C116.092 39.4611 114.768 39.214 113.621 38.3902C112.486 37.5663 111.767 36.3031 111.515 34.9576C111.275 33.612 111.502 32.1703 112.259 30.9208L118.286 21.1173ZM71.5832 5.27247C71.621 3.77586 72.201 2.44401 73.1214 1.49661C74.0166 0.562946 75.2523 0 76.5888 0.0137304V0C76.7023 0 76.8158 0.0137304 76.9293 0.0274608C78.1775 0.137304 79.2997 0.755171 80.1067 1.67511C80.9641 2.64996 81.481 3.98181 81.4684 5.45096H81.481C81.481 5.54708 81.481 5.64319 81.4684 5.72557L81.2036 17.2179H81.2162C81.2162 17.3415 81.2036 17.4651 81.191 17.5886C81.0901 18.9617 80.5228 20.1699 79.678 21.0487C78.7701 21.9824 77.5471 22.5453 76.2106 22.5316V22.5453C76.0971 22.5453 75.9836 22.5316 75.8701 22.5178C74.6093 22.408 73.4997 21.7901 72.6927 20.8702C71.8353 19.8816 71.3184 18.5498 71.331 17.0943H71.3184C71.3184 16.9982 71.3184 16.9021 71.331 16.8197L71.5832 5.27247ZM90.055 131.606L89.2606 135.656L89.0589 138.54L57.1209 143.716C57.0075 141.643 56.7049 139.405 56.2257 137.084L90.055 131.606ZM88.9958 144.856L89.021 146.599L89.0589 147.203C89.1471 148.343 89.1597 149.496 89.0967 150.636L88.6176 153.149L58.9492 157.954L58.4323 156.664L57.2722 151.501L57.247 150.004L88.9958 144.856ZM86.6632 159.767C85.1249 162.636 83.0067 164.874 80.5858 166.399C78.4297 167.772 76.0214 168.554 73.6132 168.719C71.1671 168.884 68.6958 168.376 66.4388 167.195C64.9005 166.371 63.4631 165.231 62.1897 163.749L86.6632 159.767Z" fill="black"/>
</svg>
