<svg width="160" height="169" viewBox="0 0 160 169" fill="none" xmlns="http://www.w3.org/2000/svg">
<path d="M89.8774 127.267C87.778 129.786 85.5211 132.144 83.123 134.323C83.8088 134.224 84.4946 134.097 85.1804 133.956C87.0347 133.553 88.8438 132.933 90.5762 132.107C91.0161 131.91 91.4561 131.684 91.8701 131.472C92.1771 131.906 92.5337 132.294 92.9312 132.629C93.3227 132.982 93.7584 133.272 94.2251 133.49C93.3711 133.984 92.4912 134.435 91.6372 134.901C89.7224 135.786 87.7273 136.448 85.6851 136.877C81.5537 137.761 77.304 137.761 73.1726 136.877C71.1799 136.44 69.2332 135.783 67.3628 134.915C67.3374 134.923 67.3105 134.923 67.2852 134.915C65.4388 134.046 63.6676 132.997 61.9929 131.783C60.3332 130.583 58.7898 129.203 57.3865 127.662C55.9753 126.14 54.7134 124.461 53.6211 122.653C52.5008 120.829 51.535 118.897 50.7356 116.882C49.9313 114.814 49.3201 112.663 48.9111 110.461C48.5147 108.211 48.3154 105.924 48.3159 103.632C48.3138 101.344 48.5175 99.0611 48.9241 96.8164C49.3226 94.6428 49.9253 92.5197 50.7227 90.4807C50.7169 90.4675 50.7139 90.453 50.7139 90.4384C50.7139 90.4237 50.7169 90.4093 50.7227 90.3961C51.5143 88.375 52.4759 86.4383 53.5952 84.6107C54.6953 82.8052 55.9613 81.1268 57.3735 79.6014C58.7662 78.054 60.306 76.6727 61.967 75.4811C63.6437 74.2378 65.4243 73.17 67.2852 72.2921C69.1738 71.4023 71.1427 70.7307 73.1597 70.2884C75.2223 69.8444 77.3199 69.6223 79.4224 69.6252C81.5212 69.6206 83.6151 69.8475 85.6721 70.3025C87.666 70.7277 89.6133 71.3803 91.4819 72.2498H91.5596C93.4066 73.1326 95.1814 74.1853 96.8647 75.3964C98.5171 76.5956 100.056 77.9711 101.458 79.5026C102.866 81.0283 104.128 82.7068 105.224 84.5119C106.358 86.3414 107.333 88.2831 108.135 90.3114C108.952 92.3866 109.572 94.5473 109.985 96.76C110.22 98.0185 110.388 99.2905 110.49 100.57L107.669 99.7514C107.579 98.9471 107.462 98.1428 107.32 97.3526C106.953 95.3531 106.398 93.4002 105.664 91.5249C105.203 90.3431 104.675 89.1932 104.085 88.0819H95.0273C96.5663 90.8981 97.7419 93.9323 98.521 97.0986L95.4543 96.2096C94.5712 93.3422 93.3535 90.6106 91.8313 88.0819H80.8069V93.6133C80.601 93.7395 80.4061 93.8859 80.2246 94.0507C80.0823 94.1777 79.927 94.3188 79.7976 94.4599C79.6156 94.668 79.447 94.8896 79.293 95.1231C79.0548 95.5085 78.8634 95.9259 78.7236 96.3649C78.5772 96.8197 78.4901 97.2947 78.4648 97.7759C78.4197 98.1553 78.4197 98.5395 78.4648 98.9189C78.5139 99.2342 78.5831 99.5454 78.6719 99.8502V99.9349C78.6751 99.996 78.6751 100.057 78.6719 100.118C78.6943 100.186 78.7202 100.252 78.7495 100.316L80.7034 105.128V119.139H86.4356L87.6389 122.117H80.8069V132.587C83.6358 130.084 86.2634 127.323 88.6611 124.332L89.8774 127.338V127.267ZM32.7368 82.734C32.5479 83.2344 32.2673 83.6876 31.9123 84.0657C31.5573 84.4439 31.1353 84.7391 30.6721 84.9333C30.2089 85.1275 29.7142 85.2166 29.2183 85.1952C28.7224 85.1738 28.2358 85.0423 27.7881 84.8087C27.3404 84.5752 26.9411 84.2446 26.6146 83.837C26.2881 83.4294 26.0413 82.9535 25.8892 82.4383C25.7372 81.9232 25.6831 81.3796 25.7303 80.8409C25.7774 80.3021 25.9249 79.7796 26.1636 79.3051C30.0073 70.5502 35.5898 62.838 42.5061 56.7281C43.2617 56.1357 44.1962 55.8805 45.1186 56.0146C46.041 56.1488 46.8816 56.6623 47.4683 57.4499C48.0551 58.2376 48.3437 59.2399 48.2752 60.252C48.2066 61.264 47.7861 62.2093 47.0996 62.8944C41.0144 68.2559 36.1068 75.0348 32.7368 82.734ZM124.607 131.387C127.842 141.759 137.081 141.477 139.927 131.387C142.709 134.111 150.9 134.647 153.954 136.496C154.955 137.073 155.836 137.871 156.542 138.838C157.695 140.619 158.352 142.726 158.431 144.906L159.065 150.253C159.056 150.662 158.973 151.064 158.82 151.437C158.667 151.81 158.448 152.145 158.174 152.424C157.9 152.703 157.578 152.919 157.227 153.06C156.875 153.201 156.502 153.264 156.127 153.245H108.433C108.06 153.262 107.687 153.198 107.337 153.056C106.987 152.914 106.667 152.697 106.394 152.419C106.122 152.14 105.904 151.805 105.751 151.433C105.599 151.062 105.517 150.66 105.508 150.253L106.104 144.92C106.193 142.74 106.853 140.635 108.006 138.852C108.711 137.885 109.592 137.087 110.594 136.51C113.66 134.647 121.851 134.111 124.62 131.387H124.607ZM19.0986 131.387C22.3206 141.759 31.5723 141.477 34.4189 131.387C37.188 134.111 45.3787 134.647 48.4324 136.496C49.4341 137.073 50.3152 137.871 51.0203 138.838C52.1742 140.619 52.8304 142.726 52.9094 144.906L53.5435 150.253C53.5352 150.66 53.4525 151.062 53.3004 151.433C53.1482 151.805 52.9296 152.14 52.6573 152.419C52.385 152.697 52.0645 152.914 51.7145 153.056C51.3646 153.198 50.9922 153.262 50.6191 153.245H2.93726C2.56423 153.264 2.19149 153.201 1.84085 153.061C1.49022 152.921 1.16873 152.706 0.895215 152.429C0.621697 152.152 0.401639 151.818 0.247924 151.447C0.0942081 151.075 0.00992244 150.675 0 150.268L0.634033 144.92C0.732093 142.733 1.41093 140.625 2.58789 138.852C3.29293 137.885 4.17407 137.087 5.17578 136.51C8.22949 134.647 16.4331 134.111 19.2021 131.387H19.0986ZM17.0671 114.37C17.3947 114.455 17.7359 114.455 18.0635 114.37L17.4683 110.137C17.7031 109.018 18.1826 107.977 18.8657 107.103C19.5239 106.355 20.3865 105.86 21.3242 105.692C22.6182 105.593 23.0322 106.623 24.3132 107.541C27.9111 110.139 32.1637 111.446 36.4763 111.28L35.8682 113.622C35.7755 113.771 35.7343 113.951 35.7517 114.13C35.7517 114.13 35.7517 114.13 35.7517 114.229L35.6741 114.68H36.0623C36.1894 114.768 36.3394 114.808 36.4893 114.793C37.3303 114.709 37.8608 114.793 37.9902 115.118C38.1196 115.442 37.9902 116.388 37.4597 117.771L34.8071 122.54C33.9195 124.319 32.8186 125.961 31.5334 127.422C30.8984 128.096 30.1472 128.627 29.3233 128.983C28.4994 129.339 27.619 129.513 26.7329 129.497C25.0385 129.508 23.4077 128.793 22.1912 127.507C20.9581 126.144 19.8925 124.612 19.021 122.949L16.6531 118.829C16.0458 117.955 15.6578 116.924 15.5273 115.838C15.5121 115.601 15.5476 115.365 15.6309 115.146C15.7032 114.968 15.8255 114.82 15.9802 114.723C16.3134 114.494 16.6991 114.371 17.093 114.37H17.0671ZM38.1196 113.396L38.262 107.752C38.1914 105.413 37.3771 103.173 35.9587 101.416C32.7239 97.5925 26.6941 96.6189 22.1265 98.4109C21.3746 98.7058 20.6544 99.089 19.9785 99.5539C18.0476 100.827 16.6219 102.839 15.9802 105.198C15.8425 105.749 15.743 106.31 15.6826 106.877C15.5911 109.008 15.63 111.144 15.7991 113.269C15.5944 113.359 15.3992 113.473 15.2168 113.608C14.8562 113.86 14.5724 114.224 14.4016 114.652C14.2197 115.095 14.1398 115.579 14.1687 116.063C14.2744 117.425 14.7221 118.729 15.4626 119.831L17.8306 123.937C18.7691 125.711 19.9176 127.343 21.2466 128.791C22.7095 130.336 24.6705 131.193 26.707 131.176C27.7658 131.197 28.8178 130.989 29.8019 130.562C30.786 130.136 31.6825 129.5 32.4392 128.692C33.8202 127.141 35.0039 125.395 35.9587 123.5L38.7019 118.533V118.434C39.4395 116.6 39.5947 115.344 39.2195 114.497C39.1068 114.248 38.9472 114.027 38.751 113.849C38.5548 113.672 38.3264 113.542 38.0808 113.467L38.1196 113.396ZM71.5034 16.936C71.8185 17.0146 72.1458 17.0146 72.4609 16.936L71.8528 12.7028C72.0723 11.579 72.5587 10.5377 73.2632 9.68315C73.9179 8.93054 74.7821 8.43455 75.7217 8.27208C77.0156 8.17331 77.4167 9.20339 78.7107 10.1065C82.3086 12.7048 86.5611 14.0122 90.8738 13.8458L90.2656 16.1882C90.1759 16.3386 90.1349 16.5174 90.1492 16.6961C90.1492 16.6961 90.1492 16.7667 90.1492 16.7949L90.0715 17.2606H90.4468C90.5779 17.3503 90.7327 17.39 90.8867 17.3735C91.7278 17.2888 92.1807 17.3735 92.3877 17.6698C92.5947 17.9661 92.3877 18.9538 91.8572 20.3226L89.2822 25.0496C88.389 26.8238 87.2838 28.4608 85.9956 29.9178C85.3642 30.5934 84.6155 31.1248 83.7934 31.481C82.9714 31.8371 82.0924 32.0109 81.208 31.9921C79.5136 32.0031 77.8828 31.2887 76.6663 30.0025C75.4058 28.6357 74.3218 27.0882 73.4443 25.4024L71.0764 21.2821C70.4692 20.4285 70.0767 19.4168 69.9377 18.3471C69.9235 18.111 69.9589 17.8745 70.0413 17.6557C70.1094 17.4828 70.2276 17.3391 70.3777 17.2465C70.7157 17.0174 71.1055 16.8953 71.5034 16.8937V16.936ZM73.509 33.8688C76.7439 44.2401 85.9827 43.972 88.8423 33.8688C91.6113 36.5922 99.8149 37.1425 102.856 38.991C103.861 39.5559 104.744 40.3499 105.444 41.3192C106.598 43.1003 107.254 45.2077 107.333 47.3868L107.967 52.7489C107.955 53.1553 107.87 53.5553 107.715 53.9255C107.561 54.2958 107.341 54.629 107.068 54.9059C106.795 55.1828 106.474 55.3978 106.124 55.5386C105.774 55.6794 105.402 55.7432 105.03 55.7262H57.3606C56.988 55.7432 56.616 55.6794 56.2661 55.5386C55.9162 55.3978 55.5955 55.1828 55.3223 54.9059C55.0491 54.629 54.829 54.2958 54.6747 53.9255C54.5204 53.5553 54.435 53.1553 54.4233 52.7489L55.0574 47.3868C55.1317 45.2177 55.7836 43.1191 56.9336 41.3474C57.6324 40.3772 58.5152 39.583 59.5215 39.0192C62.5623 37.1707 70.7788 36.6204 73.5349 33.897L73.509 33.8688ZM92.5559 15.9201L92.6982 10.2758C92.6262 7.93423 91.807 5.6935 90.3821 3.94011C87.1472 0.00324313 81.1174 -0.913949 76.5627 0.878103C75.8056 1.17001 75.0808 1.55338 74.4019 2.02107C72.4886 3.26986 71.065 5.24438 70.4036 7.56655C70.265 8.11642 70.1698 8.67818 70.1189 9.24572C70.0295 11.3814 70.0641 13.5211 70.2224 15.652C70.0172 15.7344 69.8217 15.8434 69.6401 15.9765C69.2888 16.2401 69.0075 16.6004 68.825 17.0207C68.652 17.4368 68.568 17.8904 68.5791 18.3471C68.7038 19.7158 69.1741 21.02 69.9377 22.1146L72.3057 26.2208C73.243 27.9913 74.3965 29.6148 75.7346 31.0467C77.1975 32.5918 79.1586 33.4483 81.1951 33.4314C82.2475 33.4657 83.2958 33.2727 84.2796 32.8634C85.2634 32.4542 86.1632 31.8367 86.9272 31.0467C88.3071 29.4976 89.4868 27.7506 90.4338 25.854L93.1641 20.9717V20.887C93.9016 19.0526 94.0698 17.7827 93.6816 16.936C93.571 16.6892 93.4134 16.4709 93.2192 16.2957C93.0251 16.1205 92.799 15.9924 92.5559 15.9201ZM122.575 114.37C122.19 114.375 121.811 114.487 121.476 114.695C121.333 114.804 121.218 114.949 121.139 115.118C121.052 115.335 121.016 115.573 121.036 115.809C121.158 116.894 121.547 117.923 122.161 118.787L124.529 122.907C125.409 124.567 126.478 126.099 127.712 127.465C128.929 128.751 130.56 129.465 132.254 129.454C134.043 129.484 135.77 128.738 137.055 127.38C138.339 125.917 139.44 124.276 140.328 122.498L142.994 117.714C143.55 116.303 143.719 115.471 143.524 115.061C143.33 114.652 142.865 114.666 142.023 114.737C141.87 114.749 141.716 114.709 141.583 114.624H141.208L141.286 114.173C141.279 114.14 141.279 114.106 141.286 114.074C141.268 113.895 141.31 113.715 141.402 113.566L142.01 111.223C137.699 111.382 133.448 110.076 129.847 107.484C128.553 106.567 128.165 105.537 126.858 105.636C125.922 105.81 125.061 106.304 124.4 107.047C123.705 107.908 123.22 108.947 122.99 110.066L123.598 114.3C123.262 114.391 122.911 114.391 122.575 114.3V114.37ZM143.628 113.396C143.873 113.464 144.101 113.591 144.295 113.767C144.49 113.942 144.647 114.163 144.754 114.412C145.142 115.259 144.987 116.529 144.249 118.349V118.448L141.545 123.288C140.592 125.181 139.413 126.927 138.038 128.481C137.283 129.291 136.387 129.928 135.402 130.355C134.418 130.781 133.365 130.989 132.306 130.964C130.256 130.992 128.279 130.135 126.807 128.579C125.477 127.128 124.328 125.491 123.391 123.711L121.023 119.619C120.295 118.51 119.848 117.21 119.729 115.852C119.698 115.366 119.782 114.88 119.975 114.441C120.153 114.017 120.435 113.656 120.79 113.396C120.972 113.269 121.162 113.156 121.359 113.058C121.194 110.932 121.16 108.796 121.256 106.666C121.305 106.098 121.401 105.536 121.54 104.986C122.193 102.634 123.616 100.625 125.539 99.3422C126.219 98.8773 126.943 98.4941 127.699 98.1992C132.254 96.4072 138.284 97.3808 141.519 101.205C142.956 102.95 143.777 105.196 143.835 107.541L143.628 113.396ZM116.002 63.5012C115.636 63.1667 115.334 62.7568 115.113 62.295C114.892 61.8332 114.757 61.3284 114.715 60.8095C114.672 60.2907 114.725 59.7678 114.868 59.2709C115.011 58.774 115.243 58.3127 115.549 57.9134C115.856 57.514 116.232 57.1845 116.655 56.9436C117.079 56.7026 117.542 56.555 118.018 56.5091C118.493 56.4633 118.973 56.5201 119.428 56.6763C119.884 56.8325 120.307 57.085 120.673 57.4195C121.411 58.0968 121.967 58.633 122.433 59.0704C122.899 59.5079 123.507 60.1711 124.115 60.806C126.308 63.1545 128.333 65.683 130.171 68.3693C132.005 71.0537 133.653 73.8837 135.101 76.8357C135.552 77.7713 135.644 78.8641 135.357 79.8736C135.069 80.8832 134.425 81.7268 133.568 82.2189C132.71 82.7111 131.707 82.8114 130.782 82.4978C129.856 82.1842 129.082 81.4824 128.631 80.5468C127.378 77.9441 125.933 75.4571 124.309 73.1105C122.713 70.7734 120.952 68.5749 119.043 66.535C118.616 66.0552 118.111 65.5613 117.568 65.011L116.054 63.5999L116.002 63.5012ZM97.9775 157.803C98.8955 157.468 99.8979 157.544 100.764 158.015C101.631 158.486 102.29 159.313 102.597 160.314C102.904 161.315 102.834 162.409 102.402 163.353C101.97 164.298 101.212 165.017 100.294 165.352C97.2279 166.481 94.0814 167.331 90.8867 167.892C81.1032 169.635 71.0764 168.719 61.6953 165.225C60.8178 164.849 60.1071 164.118 59.7111 163.185C59.3152 162.252 59.2645 161.188 59.5696 160.216C59.8747 159.243 60.5122 158.436 61.3492 157.963C62.1863 157.49 63.1584 157.387 64.0632 157.676C72.3009 160.742 81.104 161.552 89.6963 160.032C92.5087 159.541 95.2787 158.795 97.9775 157.803ZM109.623 126.336C109.445 126.533 109.234 126.691 109.002 126.802C108.767 126.926 108.512 126.998 108.251 127.013C107.972 127.043 107.69 127.01 107.423 126.914C107.155 126.828 106.908 126.679 106.699 126.477L101.601 121.905L99.5044 127.422C99.3409 127.862 99.1372 128.283 98.8962 128.678C98.678 129.043 98.417 129.375 98.1199 129.666C97.9005 129.878 97.657 130.058 97.3953 130.202C97.1503 130.334 96.8886 130.424 96.6189 130.47C96.3111 130.534 95.9951 130.534 95.6872 130.47C95.3822 130.368 95.097 130.206 94.8462 129.991C94.6149 129.787 94.4103 129.549 94.238 129.285C94.0543 128.995 93.8941 128.688 93.7593 128.368C89.8774 118.787 85.2192 108.486 81.7385 98.8342C81.6948 98.7067 81.6644 98.5741 81.6479 98.4391C81.635 98.3078 81.635 98.1754 81.6479 98.044C81.663 97.8858 81.6934 97.7297 81.7385 97.5784C81.79 97.426 81.855 97.2795 81.9326 97.1409C81.9768 97.0813 82.0243 97.0248 82.075 96.9716C82.1206 96.9172 82.1729 96.8697 82.2302 96.8305C82.3212 96.7472 82.4212 96.6761 82.5278 96.6189C82.6293 96.5623 82.7386 96.5242 82.8513 96.506C82.9501 96.4922 83.0501 96.4922 83.1489 96.506C83.2563 96.4912 83.365 96.4912 83.4724 96.506H83.5889C93.1641 98.9894 102.739 101.924 112.25 104.676C112.561 104.768 112.864 104.891 113.156 105.043C113.419 105.183 113.663 105.364 113.88 105.579C114.118 105.814 114.311 106.096 114.449 106.412C114.582 106.721 114.652 107.058 114.656 107.399C114.669 107.696 114.629 107.993 114.54 108.274C114.46 108.579 114.338 108.87 114.178 109.135C113.964 109.503 113.703 109.836 113.401 110.123C113.079 110.446 112.728 110.735 112.353 110.984C110.788 111.985 109.235 113.044 107.682 114.074L112.767 118.674C112.979 118.873 113.151 119.118 113.272 119.393C113.39 119.654 113.46 119.936 113.479 120.226C113.505 120.525 113.478 120.827 113.401 121.115C113.318 121.4 113.191 121.667 113.026 121.905C111.946 123.429 110.793 124.889 109.571 126.279L109.623 126.336ZM108.019 124.177L110.904 120.48L104.784 114.836L104.68 114.723L104.564 114.539C104.405 114.23 104.359 113.868 104.434 113.523C104.469 113.35 104.537 113.187 104.633 113.044C104.728 112.9 104.85 112.78 104.991 112.691C106.983 111.477 109.08 110.066 111.072 108.655C111.291 108.509 111.499 108.344 111.693 108.161C111.838 108.012 111.968 107.846 112.082 107.668C112.117 107.617 112.144 107.56 112.159 107.498L111.991 107.399C111.867 107.335 111.737 107.288 111.603 107.258L84.7534 99.5257L96.0366 127.211C96.0931 127.347 96.158 127.479 96.2307 127.606L96.3342 127.747L96.4766 127.62C96.6209 127.474 96.7471 127.308 96.8518 127.126C96.9914 126.89 97.1085 126.64 97.2012 126.378L99.9055 119.154C99.9191 119.103 99.941 119.055 99.9702 119.012L100.074 118.871C100.293 118.615 100.593 118.457 100.913 118.429C101.234 118.4 101.553 118.502 101.808 118.716L108.019 124.177ZM75.7864 134.294C71.788 130.74 68.2416 126.621 65.2407 122.046H56.623C57.4477 123.276 58.3606 124.432 59.3533 125.503C60.6295 126.898 62.0295 128.15 63.5327 129.243C65.0691 130.357 66.7031 131.303 68.4109 132.065C70.1292 132.883 71.9199 133.507 73.7549 133.927C74.4277 134.069 75.1265 134.196 75.8123 134.294H75.7864ZM54.8245 119.083H63.4939C61.1716 114.827 59.839 110.017 59.6121 105.071H51.072C51.1427 106.664 51.32 108.248 51.6025 109.812C51.9591 111.837 52.5144 113.815 53.2588 115.711C53.7207 116.89 54.2434 118.039 54.8245 119.154V119.083ZM51.072 102.15H59.6897C60.0988 97.1841 61.5558 92.3885 63.9468 88.1384H54.8245C54.2434 89.2529 53.7207 90.4024 53.2588 91.5814C52.5249 93.4435 51.9656 95.3818 51.5896 97.3667C51.3035 98.9299 51.1305 100.515 51.072 102.108V102.15ZM56.6101 85.2175H65.6677C68.6293 80.6916 72.0787 76.57 75.9417 72.9412C75.1653 73.04 74.4277 73.167 73.6902 73.3222C71.8589 73.7208 70.0718 74.331 68.3591 75.1425C66.6578 75.9196 65.025 76.8642 63.481 77.9646C61.9778 79.0571 60.5777 80.3097 59.3015 81.7039C58.306 82.7676 57.3928 83.9191 56.5713 85.1469L56.6101 85.2175ZM82.916 72.9412C86.7703 76.5291 90.2114 80.6133 93.1641 85.1046H102.222C100.317 82.2888 97.9789 79.854 95.312 77.9081C93.7728 76.7989 92.1392 75.8539 90.4338 75.086C88.7334 74.3011 86.9647 73.7055 85.1545 73.3081C84.4041 73.1529 83.6536 73.0259 82.916 72.9271V72.9412ZM80.8069 74.7897V85.1328H89.8645C87.1778 81.3562 84.1427 77.8903 80.8069 74.7897ZM78.0767 132.516V122.046H68.5791C71.3569 125.931 74.5448 129.445 78.0767 132.516ZM78.0767 119.083V105.071H62.3552C62.6283 110.075 64.1153 114.911 66.6641 119.083H78.0767ZM78.0767 102.15V88.0819H67.1428C64.5299 92.2558 62.9031 97.0691 62.407 102.094L78.0767 102.15ZM78.0767 85.2175V74.7897C74.7409 77.8903 71.7058 81.3562 69.019 85.1328L78.0767 85.2175Z" fill="black"/>
</svg>
