<svg width="131" height="169" viewBox="0 0 131 169" fill="none" xmlns="http://www.w3.org/2000/svg">
<path d="M124.467 76.8291L124.392 76.513C123.925 74.8067 123.088 73.2501 121.952 71.977C120.815 70.7039 119.413 69.7523 117.867 69.2041C116.321 68.6559 114.676 68.5274 113.074 68.8298C111.473 69.1321 109.962 69.8563 108.672 70.9399C107.382 72.0236 106.352 73.4343 105.67 75.0508C104.987 76.6673 104.673 78.4412 104.755 80.2201C104.837 81.9989 105.311 83.7294 106.138 85.2628C106.965 86.7962 108.119 88.0866 109.501 89.0231L109.652 89.1056C111.927 90.5523 114.63 90.9621 117.179 90.2466L117.48 90.1641C120.008 89.3884 122.158 87.5577 123.469 85.0649C124.78 82.572 125.147 79.6153 124.492 76.8291H124.467ZM30.8724 66.2436L44.2323 64.539C44.457 60.2971 45.587 56.1723 47.5315 52.4962L47.6695 52.29C48.3062 51.1021 49.0276 49.9713 49.8271 48.9082L40.7198 37.5665C39.3291 38.536 37.81 39.264 36.2163 39.7249C32.0514 40.9313 27.6201 40.2827 23.8901 37.9208C20.16 35.5588 17.4343 31.6754 16.3082 27.1185C15.7582 24.865 15.6202 22.5146 15.9022 20.2024C16.1842 17.8903 16.8807 15.6621 17.9515 13.646C18.9462 11.4638 20.338 9.52779 22.0412 7.95727C23.7444 6.38675 25.723 5.21497 27.855 4.5141C29.9871 3.81323 32.2275 3.5981 34.4383 3.88196C36.6491 4.16582 38.7835 4.94267 40.7099 6.16465C42.6364 7.38664 44.3142 9.02789 45.6401 10.9873C46.9659 12.9468 47.9116 15.1829 48.4191 17.558C48.9265 19.9332 48.9849 22.397 48.5906 24.7978C48.1963 27.1986 47.3577 29.4855 46.1265 31.5177C45.9383 31.8751 45.7376 32.2188 45.5244 32.5625L54.7069 44.0003C57.7646 41.5841 61.2833 39.961 64.9972 39.2537C68.7112 38.5463 72.5233 38.7733 76.1455 39.9173L79.658 31.3115C77.2246 29.2755 75.3786 26.5137 74.3412 23.3571C73.3038 20.2005 73.1189 16.7831 73.8088 13.5143C74.4987 10.2455 76.034 7.26406 78.2309 4.92727C80.4277 2.59047 83.1928 0.99746 86.1948 0.339137C89.1968 -0.319186 92.3083 -0.0148916 95.1565 1.21555C98.0047 2.446 100.469 4.5504 102.253 7.27655C104.038 10.0027 105.067 13.235 105.218 16.586C105.369 19.937 104.635 23.2645 103.104 26.1699C101.393 29.417 98.7729 31.9732 95.6318 33.459C92.4907 34.9449 88.9962 35.2814 85.6668 34.4184L82.2171 42.9005C86.2295 45.6353 89.4505 49.563 91.5048 54.2263C93.5591 58.8895 94.3623 64.0964 93.8207 69.2406L100.356 71.2065C100.444 71.0002 100.545 70.8078 100.645 70.6153C102.264 67.5743 104.667 65.1252 107.551 63.5753C110.436 62.0254 113.674 61.4438 116.859 61.9034C120.045 62.3631 123.035 63.8435 125.455 66.1589C127.875 68.4744 129.618 71.5216 130.463 74.9183C131.559 79.4844 130.962 84.3403 128.802 88.4255C126.642 92.5108 123.095 95.4933 118.935 96.7216C114.777 97.923 110.354 97.2757 106.629 94.9207L106.365 94.907C103.764 93.2172 101.646 90.7643 100.249 87.8249C98.8526 84.8856 98.2337 81.577 98.4622 78.2726L92.1899 76.4305C91.8613 77.3227 91.4886 78.1946 91.0735 79.0425C88.0965 85.1666 83.0978 89.8136 77.0989 92.0338C76.9106 92.095 76.7173 92.1364 76.5219 92.1575V94.907C76.6885 94.8841 76.857 94.8841 77.0236 94.907H79.9591C80.1216 94.8867 80.2857 94.8867 80.4483 94.907C83.9733 95.5256 85.7295 98.0964 86.5575 101.437C86.9003 101.204 87.2956 101.08 87.699 101.08H90.6344C90.7927 101.059 90.9528 101.059 91.1111 101.08C94.8745 101.726 96.6182 104.599 97.3834 108.256C97.5675 108.201 97.7572 108.174 97.9479 108.173H100.883C101.046 108.153 101.21 108.153 101.373 108.173C109.426 109.548 109.313 120.945 109.238 128.368C109.238 131.791 109.363 135.242 109.401 138.637C109.037 146.638 105.725 152.88 102.326 159.259L102.037 159.809C100.763 162.411 98.9709 164.666 96.7938 166.407C94.8265 167.918 92.4847 168.733 90.0825 168.744H64.73C63.5425 168.792 62.365 168.491 61.3195 167.872C60.2739 167.254 59.3985 166.339 58.7839 165.225C57.5083 162.858 56.7125 160.219 56.4506 157.485L40.5567 131.145C39.3045 129.313 38.2402 127.335 37.383 125.248C36.6359 123.482 36.1692 121.59 36.0031 119.652C35.8339 117.781 36.0881 115.892 36.7432 114.153C37.3678 112.549 38.5442 111.28 40.0173 110.62C41.3788 110.056 42.8603 109.937 44.2824 110.277C46.1844 110.716 47.9589 111.66 49.4508 113.026L54.9202 117.948L56.689 119.529V89.5317C56.2743 89.437 55.8789 89.26 55.5223 89.0093C50.3636 85.3412 46.6276 79.7091 45.0351 73.1998C44.9222 72.7462 44.8219 72.2925 44.7341 71.8251L31.8132 73.4748C31.6435 76.043 30.9627 78.5393 29.8186 80.7884L29.7183 80.9946C27.6239 84.9655 24.1868 87.8728 20.151 89.0872C16.1152 90.3016 11.8053 89.7254 8.15425 87.4834L7.96608 87.3734C4.33517 85.0859 1.67579 81.3191 0.566852 76.8932C-0.542084 72.4672 -0.0107925 67.7404 2.04507 63.7416L2.14543 63.5354C4.2375 59.5618 7.6746 56.6521 11.7114 55.4374C15.7481 54.2228 20.0591 54.8009 23.7094 57.0466L23.8976 57.1566C27.1234 59.195 29.5923 62.4117 30.8724 66.2436ZM11.1273 81.7232C13.3926 83.1021 16.0618 83.4497 18.5588 82.691C21.0559 81.9323 23.1807 80.1281 24.4747 77.6677L24.5625 77.5165C25.8207 75.034 26.1379 72.1089 25.4456 69.3724C24.7533 66.6358 23.1069 64.3073 20.8618 62.8893L20.7239 62.8068C18.451 61.4336 15.7761 61.0964 13.2781 61.8682C10.7802 62.6401 8.65999 64.4589 7.37649 66.931L7.28868 67.0685C6.0449 69.5636 5.74232 72.4934 6.44576 75.2301C7.14921 77.9667 8.80271 80.2926 11.052 81.7095L11.19 81.792L11.1273 81.7232ZM92.8297 137.057C92.8667 136.579 93.0658 136.135 93.3876 135.811C93.7093 135.487 94.1303 135.308 94.5671 135.308C95.004 135.308 95.425 135.487 95.7467 135.811C96.0684 136.135 96.2675 136.579 96.3045 137.057V145.772C96.2675 146.249 96.0684 146.694 95.7467 147.018C95.425 147.342 95.004 147.521 94.5671 147.521C94.1303 147.521 93.7093 147.342 93.3876 147.018C93.0658 146.694 92.8667 146.249 92.8297 145.772V137.057ZM82.5558 133.221C82.5353 132.957 82.565 132.692 82.643 132.442C82.7211 132.191 82.8457 131.961 83.009 131.766C83.1724 131.572 83.3708 131.416 83.5919 131.31C83.8129 131.203 84.0517 131.148 84.2932 131.148C84.5346 131.148 84.7734 131.203 84.9945 131.31C85.2155 131.416 85.414 131.572 85.5773 131.766C85.7407 131.961 85.8653 132.191 85.9433 132.442C86.0213 132.692 86.0511 132.957 86.0306 133.221V145.772C85.9936 146.249 85.7945 146.694 85.4727 147.018C85.151 147.342 84.73 147.521 84.2932 147.521C83.8563 147.521 83.4353 147.342 83.1136 147.018C82.7919 146.694 82.5928 146.249 82.5558 145.772V133.221ZM56.689 125.509C56.5727 125.439 56.4633 125.356 56.3628 125.261C55.2965 124.34 53.7536 122.965 52.2357 121.604L46.7412 116.655C45.7995 115.772 44.6757 115.154 43.4671 114.854C42.8533 114.691 42.2101 114.72 41.6105 114.937C41.1616 115.161 40.8073 115.564 40.6195 116.064C40.2536 117.105 40.1244 118.228 40.2431 119.336C40.3762 120.737 40.7239 122.104 41.2718 123.378C42.0077 125.141 42.9118 126.814 43.9688 128.368L60.214 155.396C60.398 155.701 60.514 156.049 60.5527 156.413C60.6874 158.678 61.2741 160.884 62.2713 162.874C62.5077 163.332 62.8532 163.711 63.2708 163.97C63.6884 164.229 64.1624 164.359 64.6422 164.345H90.0574C91.6038 164.329 93.109 163.796 94.3727 162.819C96.0185 161.468 97.372 159.736 98.3368 157.746L98.6378 157.169C101.774 151.244 104.822 145.484 105.148 138.651L104.985 130.65C104.979 130.536 104.979 130.421 104.985 130.307V128.451C104.985 122.649 105.136 113.768 100.733 112.902H97.8475C97.9353 115.391 97.8475 117.948 97.6844 120.271C97.6844 121.646 97.5465 122.924 97.5465 124.106C97.5053 124.694 97.2634 125.242 96.8692 125.642C96.475 126.042 95.9575 126.264 95.4202 126.264C94.8829 126.264 94.3654 126.042 93.9711 125.642C93.5769 125.242 93.335 124.694 93.2939 124.106C93.2939 122.993 93.3691 121.563 93.4444 119.982C93.7455 114.195 94.1469 106.469 90.4588 105.699H87.699C87.5172 105.704 87.3356 105.681 87.1596 105.63C87.2797 108.421 87.242 111.217 87.0467 114.002C86.9714 115.377 86.9087 116.655 86.9087 117.838C86.8675 118.425 86.6256 118.973 86.2314 119.373C85.8372 119.773 85.3197 119.996 84.7824 119.996C84.2451 119.996 83.7276 119.773 83.3334 119.373C82.9392 118.973 82.6973 118.425 82.6561 117.838C82.6561 116.724 82.7314 115.294 82.8067 113.713C83.1077 107.94 83.4966 100.213 79.8211 99.4436H77.0236C76.8371 99.4442 76.6513 99.4165 76.4717 99.3611V111.404C76.4305 111.991 76.1886 112.539 75.7944 112.939C75.4002 113.34 74.8827 113.562 74.3454 113.562C73.8081 113.562 73.2906 113.34 72.8964 112.939C72.5021 112.539 72.2603 111.991 72.2191 111.404V81.0221C72.2191 76.8979 70.7012 74.3959 68.7819 73.3373C68.0906 72.9498 67.3254 72.7473 66.549 72.7462C65.7824 72.7513 65.0272 72.9488 64.3411 73.3236C62.4344 74.3959 60.9416 76.9666 60.9416 81.1183V129.812C60.9004 130.399 60.6585 130.947 60.2643 131.347C59.8701 131.747 59.3526 131.97 58.8153 131.97C58.278 131.97 57.7605 131.747 57.3663 131.347C56.972 130.947 56.7302 130.399 56.689 129.812V125.509ZM56.689 80.8021C56.7768 74.8083 59.2606 70.9315 62.4218 69.1718C63.702 68.4654 65.1156 68.0981 66.549 68.0995C67.9881 68.095 69.4074 68.4673 70.6887 69.1856C73.9251 70.9727 76.4717 74.9595 76.4717 81.0221V84.4177C79.0975 83.1435 81.4116 81.2079 83.2258 78.7684C85.04 76.3289 86.3029 73.4544 86.9118 70.3789C87.5207 67.3034 87.4583 64.1138 86.7298 61.0696C86.0013 58.0255 84.6272 55.213 82.7193 52.8608C80.8115 50.5087 78.4238 48.6834 75.7506 47.5337C73.0774 46.3839 70.1943 45.9421 67.3359 46.2442C64.4775 46.5463 61.7245 47.5838 59.3011 49.2722C56.8777 50.9606 54.8523 53.2522 53.3898 55.9606L53.2894 56.153C52.0967 58.4201 51.3233 60.9224 51.0133 63.5172C50.7034 66.1119 50.863 68.7481 51.483 71.2752C52.3705 74.9143 54.1746 78.2063 56.689 80.7747V80.8021ZM40.7324 28.0258C42.0632 25.4845 42.4183 22.468 41.7196 19.6398C41.0209 16.8116 39.3256 14.4033 37.0066 12.9449C34.6877 11.4865 31.9351 11.0974 29.3543 11.8631C26.7736 12.6288 24.5761 14.4866 23.2453 17.0279C21.9251 19.5216 21.5512 22.4836 22.2041 25.2764L22.2794 25.6063C22.9846 28.3795 24.6539 30.7391 26.929 32.1785C29.2041 33.6179 31.9034 34.0223 34.4476 33.3048L34.7486 33.2086C37.2749 32.4312 39.4229 30.6003 40.7324 28.1083V28.0258ZM97.8475 22.9118C98.9885 20.7436 99.4082 18.209 99.0352 15.7397C98.6622 13.2704 97.5195 11.0192 95.8018 9.3697C94.0841 7.72016 91.8976 6.77429 89.6149 6.69324C87.3322 6.6122 85.0945 7.40098 83.283 8.92521C81.4715 10.4494 80.1982 12.6148 79.6801 15.0525C79.162 17.4901 79.4311 20.0492 80.4417 22.2938C81.4522 24.5384 83.1416 26.3296 85.222 27.3622C87.3024 28.3949 89.6452 28.6051 91.8512 27.9571C94.3811 27.2124 96.5377 25.3978 97.8475 22.9118Z" fill="black"/>
</svg>
